# xmcd CD database file generated by freedbAccess_ocx
#
# Track frame offsets:
#       150
#       14555
#       29771
#       47459
#       62916
#       77707
#       93666
#       110520
#       124862
#       139970
#       154639
#       167576
#       182702
#       197891
#       212198
#       227044
#       240240
#       254463
#
# Disc length: 3602 seconds
#
# Revision: 0
# Processed by: cddbd v1.5.2PL0 Copyright (c) Steve Scherf et al.
# Submitted via: CDnGo 2.00
#
DISCID=fe0e1012
DTITLE=Roby and Roger - Acustico
DYEAR=2009
DGENRE=Country
TTITLE0=Simbora beber
TTITLE1=Arreia cerveja
TTITLE2=Você não fale nada
TTITLE3=Fala
TTITLE4=Pensa em Mim
TTITLE5=Magia
TTITLE6=Tão só
TTITLE7=Diversão
TTITLE8=Entre um gole e outro
TTITLE9=Perdoa
TTITLE10=Eu vou rifar meu coração
TTITLE11=Dou o braço a torcer
TTITLE12=To facim
TTITLE13=Eu so quero pescar-Roda de amigos
TTITLE14=Uma mor pra viver
TTITLE15=Segunda feira
TTITLE16=Ceu de estrelas (mi leve com voce)
TTITLE17=Se ele te traiu
EXTD=
EXTT0=
EXTT1=
EXTT2=
EXTT3=
EXTT4=
EXTT5=
EXTT6=
EXTT7=
EXTT8=
EXTT9=
EXTT10=
EXTT11=
EXTT12=
EXTT13=
EXTT14=
EXTT15=
EXTT16=
EXTT17=
PLAYORDER=
